<svg xmlns="http://www.w3.org/2000/svg" viewBox="0 0 960 720" fill="none">
  <defs>
    <linearGradient id="boardBg" x1="0" y1="0" x2="1" y2="1">
      <stop offset="0%" stop-color="#eef6f3"/>
      <stop offset="100%" stop-color="#ddebe5"/>
    </linearGradient>
  </defs>
  <rect width="960" height="720" rx="30" fill="url(#boardBg)"/>
  <rect x="56" y="60" width="848" height="600" rx="28" fill="#ffffff" stroke="#d8e1dc" stroke-width="4"/>
  <rect x="110" y="118" width="286" height="230" rx="24" fill="#edf2ef"/>
  <rect x="430" y="118" width="420" height="108" rx="22" fill="#ffffff" stroke="#d8e1dc" stroke-width="3"/>
  <rect x="430" y="252" width="420" height="140" rx="22" fill="#edf2ef"/>
  <rect x="110" y="386" width="740" height="212" rx="24" fill="#ffffff" stroke="#d8e1dc" stroke-width="3"/>
  <path d="M168 166c30-50 136-50 166 0 18 30 18 66 18 96 0 52-34 108-100 108S150 314 150 262c0-30 0-66 18-96Z" fill="#d9ab98" stroke="#5b6962" stroke-width="4"/>
  <ellipse cx="224" cy="230" rx="10" ry="4" fill="#17211d"/>
  <ellipse cx="290" cy="230" rx="10" ry="4" fill="#17211d"/>
  <path d="M232 288c18 16 42 16 60 0" stroke="#763a31" stroke-width="5" stroke-linecap="round"/>
  <path d="M138 192h230" stroke="#c84735" stroke-width="4"/>
  <path d="M128 318h250" stroke="#c84735" stroke-width="4"/>
  <circle cx="468" cy="174" r="14" fill="#0f8f76"/>
  <circle cx="512" cy="160" r="10" fill="#c84735"/>
  <circle cx="548" cy="188" r="12" fill="#b7791f"/>
  <path d="M468 174 512 160 548 188" stroke="#5b6962" stroke-width="3"/>
  <path d="M590 162h190" stroke="#0f8f76" stroke-width="8" stroke-linecap="round"/>
  <path d="M590 192h144" stroke="#5b6962" stroke-width="7" stroke-linecap="round"/>
  <path d="M470 292h116" stroke="#c84735" stroke-width="10" stroke-linecap="round"/>
  <path d="M470 326h206" stroke="#5b6962" stroke-width="8" stroke-linecap="round"/>
  <path d="M470 356h154" stroke="#0f8f76" stroke-width="8" stroke-linecap="round"/>
  <path d="M166 438h626" stroke="#d8e1dc" stroke-width="4" stroke-linecap="round"/>
  <path d="M166 490h480" stroke="#0f8f76" stroke-width="8" stroke-linecap="round"/>
  <path d="M166 530h420" stroke="#c84735" stroke-width="8" stroke-linecap="round"/>
  <path d="M166 570h542" stroke="#b7791f" stroke-width="8" stroke-linecap="round"/>
</svg>
